<?xml version="1.0" encoding="UTF-8" standalone="no"?>
<!-- Created with Inkscape (http://www.inkscape.org/) -->

<svg
   width="5.4859047mm"
   height="8.4024591mm"
   viewBox="0 0 5.4859047 8.4024591"
   version="1.1"
   id="svg1"
   xmlns="http://www.w3.org/2000/svg"
   xmlns:svg="http://www.w3.org/2000/svg">
  <defs
     id="defs1" />
  <g
     id="layer10"
     transform="translate(-160.71867,-72.80259)">
    <path
       id="path294-4-7-4-4-1-3-98-5"
       style="fill:#ffffff;fill-opacity:1;stroke:none;stroke-width:0.0100095;stroke-linecap:round;stroke-linejoin:round;stroke-dasharray:none;stroke-opacity:1"
       d="m 163.87748,72.804614 c -0.35221,0.0434 -0.57088,0.701251 -0.74281,0.765768 -0.14523,0.03839 -0.26708,-0.295123 -0.47991,-0.130869 -0.31466,0.274174 -0.0584,0.738893 0.004,1.060148 0.0584,0.208072 0.0584,0.435006 -0.10934,0.139967 -0.56671,-0.786467 -1.0285,-0.562454 -1.06848,-0.53391 -0.57088,0.711601 0.16358,1.542787 0.58006,2.12033 0.62347,0.827697 -0.93403,-0.493012 -1.31745,0.04173 -0.27626,0.523143 1.84293,2.125463 1.67718,2.22152 -0.24538,0.233695 -0.79039,-0.230022 -0.90132,0.204066 -0.16358,0.656182 1.05764,0.853161 1.51193,1.355797 0.14522,0.158078 0.29963,0.315989 0.37474,0.51463 0.0751,0.198974 -5e-4,0.581149 0.0584,0.634565 0.0167,0.02504 0.38476,-0.01836 0.35388,-0.161751 -0.008,-0.04924 -0.091,-0.130869 -0.10934,-0.176272 -0.002,-0.101741 -0.0167,-0.231525 0.0167,-0.339442 0.31048,-0.979457 1.76999,-1.813722 1.66642,-2.594372 -0.10934,-0.588076 -1.03761,0.241875 -1.09395,-0.06343 -0.0584,-0.229188 1.77717,-0.984723 1.9062,-2.203166 0.0167,-1.041061 -1.02675,-0.134458 -1.43922,0.147227 -0.0751,0.03088 -0.18863,0.07595 -0.16359,-0.04757 0.091,-0.365232 0.7545,-0.87679 0.84314,-1.214963 0.0584,-0.195553 0.10933,-0.482997 -0.0584,-0.603517 -0.51997,-0.386681 -1.00489,1.059965 -1.0467,-0.232026 -4.2e-4,-0.01335 -0.10934,-0.949301 -0.47824,-0.904958 z m -0.0751,2.383762 c 0.38893,-0.342529 0.61595,-0.250721 0.73113,-0.329843 -0.004,0.443603 -0.32884,0.512543 -0.72696,1.067551 -0.0584,0.08012 -0.0167,0.573638 -0.0334,0.804244 0.60678,-0.370406 0.93478,-0.305973 1.29818,-0.395695 0.004,0.477906 -1.13083,0.774031 -1.27072,1.288126 -0.0334,0.103577 0.008,0.878192 0.0167,0.980141 0.44068,-0.194384 0.70275,-0.09014 0.88937,-0.261655 -0.0167,0.330178 -0.64934,0.523894 -0.87085,0.868761 -0.16358,0.254393 -0.2195,0.294205 -0.31632,0.850357 -0.18445,-0.583486 -0.80374,-0.630893 -1.18458,-1.039458 0.2796,0.116847 0.56504,-0.03589 0.97517,0.168427 -0.0167,-0.727041 0.008,-0.381924 0.006,-0.788636 -0.36389,-0.675462 -1.05129,-0.720448 -1.30936,-1.363351 0.25206,0.08805 0.64433,-0.02337 1.30235,0.497269 -9.2e-4,-0.16175 0.025,-0.672206 -0.008,-0.73689 -0.2963,-0.55803 -1.06457,-1.025528 -1.05004,-1.540875 0.39561,0.235781 0.44652,0.09857 1.10529,0.620543 0.004,-0.08722 -0.0334,-0.557195 -0.0167,-0.671622 -0.14523,-0.366734 -0.30464,-0.708346 -0.28628,-0.974382 0.0751,0.108084 0.13604,0.09707 0.38727,0.347621 0.0167,-0.518803 0.0584,-0.781626 0.28043,-1.006657 0.14355,0.145808 0.12686,1.041394 0.086,1.615983 z" />
  </g>
</svg>
