<?xml version="1.0" encoding="UTF-8" standalone="no"?>
<!-- Created with Inkscape (http://www.inkscape.org/) -->

<svg
   width="5.4859214mm"
   height="8.4024506mm"
   viewBox="0 0 5.4859214 8.4024506"
   version="1.1"
   id="svg1"
   xmlns="http://www.w3.org/2000/svg"
   xmlns:svg="http://www.w3.org/2000/svg">
  <defs
     id="defs1" />
  <g
     id="layer10"
     transform="translate(-167.22355,-72.662292)">
    <path
       id="path294-4-7-4-4-1-3-98-5-2"
       style="display:inline;fill:#000000;fill-opacity:1;stroke:none;stroke-width:0.0100095;stroke-linecap:round;stroke-linejoin:round;stroke-dasharray:none;stroke-opacity:1"
       d="m 170.38236,72.664314 c -0.35221,0.0434 -0.57088,0.701251 -0.74281,0.765768 -0.14523,0.03839 -0.26708,-0.295123 -0.47991,-0.130869 -0.31466,0.274174 -0.0584,0.738893 0.004,1.060148 0.0584,0.208072 0.0313,0.428575 -0.19202,0.17304 -0.69893,-0.799695 -0.94582,-0.595527 -0.9858,-0.566983 -0.57088,0.711601 0.16358,1.542787 0.58006,2.12033 0.62347,0.827697 -0.92576,-0.741059 -1.31745,0.04173 -0.27626,0.523143 1.84293,2.125463 1.67718,2.22152 -0.24538,0.233695 -0.81519,-0.453264 -0.92612,-0.01918 -0.16358,0.656182 1.06324,1.017577 1.53673,1.579039 0.1368,0.16222 0.29963,0.315989 0.37474,0.51463 0.0751,0.198974 -5e-4,0.581149 0.0584,0.634565 0.0167,0.02504 0.38476,-0.01836 0.35388,-0.161751 -0.008,-0.04924 -0.091,-0.130869 -0.10934,-0.176272 -0.002,-0.101741 -0.0167,-0.231525 0.0167,-0.339442 0.31048,-0.979457 1.76999,-1.813722 1.66642,-2.594372 -0.10934,-0.588076 -1.03761,0.241875 -1.09395,-0.06343 -0.0584,-0.229188 1.77717,-0.984723 1.9062,-2.203166 0.0167,-1.041061 -1.02675,-0.134458 -1.43922,0.147227 -0.0751,0.03088 -0.18863,0.07595 -0.16359,-0.04757 0.091,-0.365232 0.7545,-0.87679 0.84314,-1.214963 0.0584,-0.195553 0.10933,-0.482997 -0.0584,-0.603517 -0.51997,-0.386681 -1.00489,1.059965 -1.0467,-0.232026 -4.2e-4,-0.01335 -0.10934,-0.949301 -0.47824,-0.904958 z" />
  </g>
</svg>
